<mxfile host="app.diagrams.net" modified="2022-03-01T06:10:14.104Z" agent="5.0 (Macintosh; Intel Mac OS X 10_15_7) AppleWebKit/537.36 (KHTML, like Gecko) Chrome/98.0.4758.109 Safari/537.36" etag="y9fTbgAav2NjxedrtyFD" version="16.6.4" type="github">
  <diagram id="SxZBxJGh8H3MOp1xeRJv" name="Page-1">
    <mxGraphModel dx="1269" dy="769" grid="1" gridSize="10" guides="1" tooltips="1" connect="1" arrows="1" fold="1" page="1" pageScale="1" pageWidth="827" pageHeight="1169" math="0" shadow="0">
      <root>
        <mxCell id="0" />
        <mxCell id="1" parent="0" />
        <mxCell id="Fue6ULY24Gqi7CpFy456-1" value="结束" style="rounded=1;whiteSpace=wrap;html=1;" vertex="1" parent="1">
          <mxGeometry x="354" y="900" width="120" height="60" as="geometry" />
        </mxCell>
        <mxCell id="Fue6ULY24Gqi7CpFy456-4" value="" style="edgeStyle=orthogonalEdgeStyle;rounded=0;orthogonalLoop=1;jettySize=auto;html=1;" edge="1" parent="1" source="Fue6ULY24Gqi7CpFy456-2" target="Fue6ULY24Gqi7CpFy456-3">
          <mxGeometry relative="1" as="geometry" />
        </mxCell>
        <mxCell id="Fue6ULY24Gqi7CpFy456-2" value="删除机构" style="rounded=1;whiteSpace=wrap;html=1;" vertex="1" parent="1">
          <mxGeometry x="354" y="100" width="120" height="60" as="geometry" />
        </mxCell>
        <mxCell id="Fue6ULY24Gqi7CpFy456-6" value="" style="edgeStyle=orthogonalEdgeStyle;rounded=0;orthogonalLoop=1;jettySize=auto;html=1;" edge="1" parent="1" source="Fue6ULY24Gqi7CpFy456-3" target="Fue6ULY24Gqi7CpFy456-5">
          <mxGeometry relative="1" as="geometry" />
        </mxCell>
        <mxCell id="Fue6ULY24Gqi7CpFy456-3" value="根据机构码得到gxbh和tablenode" style="rounded=0;whiteSpace=wrap;html=1;" vertex="1" parent="1">
          <mxGeometry x="354" y="190" width="120" height="60" as="geometry" />
        </mxCell>
        <mxCell id="Fue6ULY24Gqi7CpFy456-8" value="" style="edgeStyle=orthogonalEdgeStyle;rounded=0;orthogonalLoop=1;jettySize=auto;html=1;" edge="1" parent="1" source="Fue6ULY24Gqi7CpFy456-5" target="Fue6ULY24Gqi7CpFy456-7">
          <mxGeometry relative="1" as="geometry" />
        </mxCell>
        <mxCell id="Fue6ULY24Gqi7CpFy456-5" value="根据ssxzbh查询rzx_squad_file表中数据" style="rounded=0;whiteSpace=wrap;html=1;" vertex="1" parent="1">
          <mxGeometry x="354" y="290" width="120" height="60" as="geometry" />
        </mxCell>
        <mxCell id="Fue6ULY24Gqi7CpFy456-10" value="" style="edgeStyle=orthogonalEdgeStyle;rounded=0;orthogonalLoop=1;jettySize=auto;html=1;" edge="1" parent="1" source="Fue6ULY24Gqi7CpFy456-7" target="Fue6ULY24Gqi7CpFy456-9">
          <mxGeometry relative="1" as="geometry" />
        </mxCell>
        <mxCell id="Fue6ULY24Gqi7CpFy456-7" value="把文件夹的文件放到list中" style="rounded=0;whiteSpace=wrap;html=1;" vertex="1" parent="1">
          <mxGeometry x="354" y="380" width="120" height="60" as="geometry" />
        </mxCell>
        <mxCell id="Fue6ULY24Gqi7CpFy456-13" value="" style="edgeStyle=orthogonalEdgeStyle;rounded=0;orthogonalLoop=1;jettySize=auto;html=1;" edge="1" parent="1" source="Fue6ULY24Gqi7CpFy456-9" target="Fue6ULY24Gqi7CpFy456-12">
          <mxGeometry relative="1" as="geometry" />
        </mxCell>
        <mxCell id="Fue6ULY24Gqi7CpFy456-9" value="删除符合条件的数据" style="rounded=0;whiteSpace=wrap;html=1;" vertex="1" parent="1">
          <mxGeometry x="354" y="470" width="120" height="60" as="geometry" />
        </mxCell>
        <mxCell id="Fue6ULY24Gqi7CpFy456-16" value="" style="edgeStyle=orthogonalEdgeStyle;rounded=0;orthogonalLoop=1;jettySize=auto;html=1;" edge="1" parent="1" source="Fue6ULY24Gqi7CpFy456-12" target="Fue6ULY24Gqi7CpFy456-15">
          <mxGeometry relative="1" as="geometry" />
        </mxCell>
        <mxCell id="Fue6ULY24Gqi7CpFy456-12" value="循环list，并计算文件大小" style="rounded=0;whiteSpace=wrap;html=1;" vertex="1" parent="1">
          <mxGeometry x="354" y="555" width="120" height="60" as="geometry" />
        </mxCell>
        <mxCell id="Fue6ULY24Gqi7CpFy456-18" value="" style="edgeStyle=orthogonalEdgeStyle;rounded=0;orthogonalLoop=1;jettySize=auto;html=1;" edge="1" parent="1" source="Fue6ULY24Gqi7CpFy456-15" target="Fue6ULY24Gqi7CpFy456-17">
          <mxGeometry relative="1" as="geometry" />
        </mxCell>
        <mxCell id="Fue6ULY24Gqi7CpFy456-15" value="并把verify 插入到rzx_scavenging （文件检查清理）表中" style="rounded=0;whiteSpace=wrap;html=1;" vertex="1" parent="1">
          <mxGeometry x="354" y="650" width="120" height="60" as="geometry" />
        </mxCell>
        <mxCell id="Fue6ULY24Gqi7CpFy456-19" value="" style="edgeStyle=orthogonalEdgeStyle;rounded=0;orthogonalLoop=1;jettySize=auto;html=1;" edge="1" parent="1" source="Fue6ULY24Gqi7CpFy456-17" target="Fue6ULY24Gqi7CpFy456-1">
          <mxGeometry relative="1" as="geometry" />
        </mxCell>
        <mxCell id="Fue6ULY24Gqi7CpFy456-17" value="&lt;div&gt;删除文件的大小,磁盘编号,和flag：2（表示&lt;/div&gt;&lt;div&gt;删除）等信息插入&lt;/div&gt;&lt;div&gt;rzx_squad_details_space（组磁 盘详情）表中&lt;/div&gt;" style="rounded=0;whiteSpace=wrap;html=1;" vertex="1" parent="1">
          <mxGeometry x="331" y="750" width="166" height="100" as="geometry" />
        </mxCell>
      </root>
    </mxGraphModel>
  </diagram>
</mxfile>
